<?xml version="1.0" encoding="UTF-8"?>
<svg width="818px" height="842px" viewBox="0 0 818 842" version="1.1" xmlns="http://www.w3.org/2000/svg" xmlns:xlink="http://www.w3.org/1999/xlink">
    <!-- Generator: Sketch 50.2 (55047) - http://www.bohemiancoding.com/sketch -->
    <title>Taurus</title>
    <desc>Created with Sketch.</desc>
    <defs>
        <radialGradient cx="23.1131693%" cy="30.756103%" fx="23.1131693%" fy="30.756103%" r="82.1331107%" gradientTransform="translate(0.231132,0.307561),scale(1.000000,0.971269),rotate(38.085430),translate(-0.231132,-0.307561)" id="radialGradient-1">
            <stop stop-color="#AE2375" offset="0%"></stop>
            <stop stop-color="#53A0FD" offset="42.8445629%"></stop>
            <stop stop-color="#B4EC51" offset="100%"></stop>
        </radialGradient>
    </defs>
    <g id="Logo" stroke="none" stroke-width="1" fill="none" fill-rule="evenodd">
        <g id="Artboard" transform="translate(-103.000000, -91.000000)" stroke="url(#radialGradient-1)" stroke-width="5">
            <g id="Logo" transform="translate(106.000000, 94.000000)">
                <path d="M282.209841,309.561223 C253.254982,298.204155 230.156161,283.60221 211.937373,266.079877 C194.04392,248.557544 174.198455,220.327118 152.400976,181.064111 L126.374136,134.337889 C94.4912566,77.2280618 58.0536804,48.6731482 17.7120781,48.6731482 L6,48.6731482 C-1.80805205,27.5889661 -1.80805205,14.2057292 6,8.5234375 C13.8080521,2.84114583 24.5441236,-1.18832917e-13 38.2082147,-1.70530257e-13 C95.4672631,-1.70530257e-13 147.520943,40.2364692 194.04392,120.38492 L229.50549,182.68655 C253.580317,223.571994 278.305815,252.126908 304.332656,268.351291 C330.359496,284.900161 364.194388,293.012352 406.162668,293.012352 C448.130948,293.012352 481.96584,284.900161 507.99268,268.351291 C534.01952,252.126908 558.745018,223.571994 582.49451,182.68655 L618.606751,120.38492 C664.804392,40.2364692 716.858072,-1.70530257e-13 773.791785,-1.70530257e-13 C787.672767,-1.31394888e-13 798.408838,2.84114583 806,8.5234375 C813.591162,14.2057292 813.591162,27.5889661 806,48.6731482 L794.613257,48.6731482 C753.94632,48.6731482 717.508743,77.2280618 685.625864,134.337889 L659.599024,181.064111 C637.801545,220.327118 617.95608,248.557544 600.062627,266.079877 C581.843839,283.60221 558.419683,298.204155 529.790159,309.561223 C579.891826,337.142673 618.281415,372.836315 645.609597,415.993173 C672.93778,459.150032 686.276535,506.849717 686.276535,558.118766 C686.276535,632.750927 658.623017,697.648458 602.990647,752.811359 C547.03294,807.974261 481.640504,835.555711 406.162668,835.555711 C330.684831,835.555711 265.292395,807.974261 209.334689,752.811359 C153.376983,697.648458 125.398129,632.750927 125.398129,558.118766 C125.398129,506.849717 139.06222,459.150032 166.390403,415.993173 C193.718585,372.836315 232.108174,337.142673 282.209841,309.561223 Z M406.162668,770.333693 C465.373729,770.333693 515.800732,749.89097 558.094347,708.35655 C600.062627,667.471106 621.209435,617.824495 621.209435,559.741205 C621.209435,500.684451 600.062627,450.388865 558.419683,409.178933 C516.776739,367.644513 466.0244,347.201791 406.162668,347.201791 C346.626271,347.201791 295.873932,367.644513 253.580317,409.178933 C211.937373,450.388865 190.790565,500.684451 190.790565,559.741205 C190.790565,617.824495 211.937373,667.471106 253.905653,708.35655 C295.873932,749.89097 346.626271,770.333693 406.162668,770.333693 Z" id="Taurus"></path>
            </g>
        </g>
    </g>
</svg>